<?xml version="1.0" standalone="no"?>
<!DOCTYPE svg PUBLIC "-//W3C//DTD SVG 20010904//EN"
 "http://www.w3.org/TR/2001/REC-SVG-20010904/DTD/svg10.dtd">
<svg version="1.0" xmlns="http://www.w3.org/2000/svg"
 width="200.000000pt" height="200.000000pt" viewBox="0 0 200.000000 200.000000"
 preserveAspectRatio="xMidYMid meet">

<g transform="translate(0.000000,200.000000) scale(0.100000,-0.100000)"
fill="#000000" stroke="none">
<path d="M860 1989 c-200 -26 -416 -134 -565 -284 -308 -307 -381 -782 -178
-1167 128 -245 371 -436 637 -503 226 -56 482 -28 688 75 101 50 156 89 240
168 356 336 415 885 138 1286 -216 313 -580 474 -960 425z m648 -657 l3 -142
-513 2 -513 3 -3 129 c-1 72 0 136 2 143 4 11 102 13 513 11 l508 -3 3 -143z
m2 -337 l0 -125 -357 0 -357 0 -33 -32 c-18 -18 -33 -36 -33 -40 0 -4 176 -8
390 -8 l390 0 0 -130 0 -130 -515 0 -515 0 0 172 0 173 122 122 123 123 392 0
393 0 0 -125z"/>
</g>
</svg>
